PathFileType	4	(X/Y/Z)	C:/Users/beibeiliu/ov580/test_trc/User3\sequence.34_training_dense_right.trc
DataRate	CameraRate	NumFrames	NumMarkers	Units	OrigDataRate	OrigDataStartFrame	OrigNumFrames
120	120	24	19	mm	120	63	250
Frame#	Time	ThumbCMC			ThumbMCP			ThumbIP			ThumbTip			IndexMCP			IndexPIP			IndexTip			MiddleMCP			MiddlePIP			MiddleTip			RingMCP			RingPIP			RingTip			PinkyMCP			PinkyPIP			PinkyTip			BackHand1			BackHand2			BackHand3	
		X0	Y0	Z0	X1	Y1	Z1	X2	Y2	Z2	X3	Y3	Z3	X4	Y4	Z4	X5	Y5	Z5	X6	Y6	Z6	X7	Y7	Z7	X8	Y8	Z8	X9	Y9	Z9	X10	Y10	Z10	X11	Y11	Z11	X12	Y12	Z12	X13	Y13	Z13	X14	Y14	Z14	X15	Y15	Z15	X16	Y16	Z16	X17	Y17	Z17	X18	Y18	Z18	
62	0.516667	94.8272	16.3256	32.6651	75.1239	15.0894	5.07571	67.0201	12.5238	-27.8681	73.1735	-3.26657	-46.3068	117.796	34.6152	-35.883	99.6972	30.4456	-62.7008	73.1442	12.9998	-47.0278	127.611	20.2473	-51.6076	101.53	12.3371	-68.4639	84.5229	-11.3975	-38.7451	128.488	-6.25752	-45.0581	98.7462	-17.9128	-53.7372	91.2713	-25.6007	-19.7314	132.982	-26.7637	-37.7546	104.859	-33.6548	-40.5075	98.4791	-33.1102	-10.2656	151.104	-4.37125	8.2171	154.938	-14.6859	37.9154	133.383	18.6174	26.1573	
63	0.525	94.5665	17.4495	30.5184	76.3193	16.5798	2.73462	67.2975	13.8991	-27.0525	75.878	-5.07737	-49.0586	117.69	33.7402	-38.1423	91.8099	31.5231	-61.9639	76.5764	9.11995	-41.3112	126.181	17.7639	-49.6055	101.561	9.76698	-67.2076	86.7494	-12.9114	-32.4625	129.002	-6.35513	-44.9636	103.034	-19.6791	-54.1251	93.7641	-25.3935	-23.1435	133.128	-25.6524	-37.8235	108.018	-30.7619	-43.6299	97.6828	-36.1386	-14.0176	152.892	-3.00878	4.78823	153.072	-13.6819	38.1772	132.206	20.6225	26.2518	
64	0.533333	95.8648	15.5357	35.7255	75.6432	18.7733	1.10448	66.4649	13.6738	-24.8139	78.6949	-5.48906	-46.1161	115.823	37.797	-36.2981	88.9499	28.8366	-59.0727	77.0677	10.4217	-35.0234	123.042	20.879	-48.685	99.1424	6.26439	-64.3241	85.3201	-7.76314	-29.5929	128.433	-3.83057	-45.3292	100.441	-20.4021	-52.7157	92.6709	-22.5561	-23.7814	132.282	-21.8912	-37.8579	106.414	-30.7749	-43.7558	98.0758	-37.9821	-15.518	152.756	-4.48215	4.30546	154.233	-13.5667	37.013	134.308	18.5441	28.1314	
65	0.541667	95.7256	17.8173	34.3411	78.116	16.5383	4.05839	69.153	12.7035	-24.6377	79.1765	-7.44385	-41.2777	115.37	34.7904	-36.8541	90.1908	21.771	-56.8681	77.0644	9.70566	-31.7471	124.577	16.2807	-52.2884	98.1763	5.48353	-62.878	85.7263	-6.10313	-27.8734	126.158	-1.66262	-46.3919	100.206	-15.1066	-53.1153	92.5285	-19.2606	-20.4665	131.657	-20.7648	-38.6025	106.036	-31.6509	-42.5297	99.2194	-34.5886	-16.602	152.769	-5.1289	7.92841	152.032	-13.0157	38.9335	137.958	19.3763	25.9307	
66	0.55	95.7949	18.3084	34.723	78.2856	16.9404	5.16364	74.3275	10.1405	-28.3049	88.1193	-11.3658	-37.5562	111.809	29.7008	-40.0012	85.296	21.6099	-54.6172	74.658	7.57795	-22.1467	123.698	15.8646	-47.7446	95.7285	3.06193	-61.3229	87.2607	-10.5938	-23.0464	126.264	-4.53636	-48.3353	99.008	-19.7666	-50.3867	92.7705	-21.7967	-20.2051	133.743	-21.4134	-37.6214	110.14	-30.1185	-44.9818	102.394	-38.2581	-13.9524	154.863	-5.31466	4.58877	153.327	-13.8891	36.1345	135.883	18.2793	28.9502	
67	0.558333	96.1044	18.6177	37.7611	86.4255	22.7186	5.04231	93.7261	13.4141	-25.3649	103.766	-6.71844	-35.3526	107.866	26.6654	-38.299	79.4333	14.5436	-49.3014	70.2231	-0.43928	-20.7961	115.25	15.5872	-48.4446	91.9974	-1.60161	-57.5993	82.1855	-16.9486	-22.8014	128.298	-5.41601	-42.6429	100.933	-19.6718	-50.3966	94.2045	-24.895	-17.8652	135.597	-23.3677	-36.5545	106.857	-30.6812	-40.3638	104.272	-37.939	-12.5442	152.937	-2.7194	9.54035	155.367	-13.5128	40.1313	133.326	22.2434	28.5886	
68	0.566667	96.389	17.2676	37.7989	87.7982	23.463	7.37186	92.381	15.612	-26.9482	107.838	-7.92383	-33.4986	107.011	25.295	-35.4496	80.5905	9.22505	-47.9153	68.0475	-1.07538	-17.8917	115.605	9.79708	-48.9623	90.4203	-6.41386	-52.7878	82.496	-19.9435	-16.2006	127.019	-8.29189	-43.5181	99.6152	-21.5001	-46.3888	94.5401	-23.9193	-11.0703	133.364	-22.8951	-36.149	110.111	-31.7319	-39.384	106.114	-34.5171	-6.53546	152.369	-0.504222	10.5053	154.516	-11.0805	37.4939	135.624	18.6807	27.847	
69	0.575	100.994	16.3928	34.3902	89.1428	25.1506	7.31428	96.5558	13.6234	-25.6403	106.281	-8.77437	-29.1444	102.122	25.9178	-38.0424	76.4778	9.1313	-43.6492	68.3802	-2.7929	-14.1667	113.929	9.9234	-45.4258	85.7686	-6.78695	-47.8942	85.4372	-21.917	-10.6543	125.313	-9.05737	-40.841	97.6731	-22.4554	-42.1413	98.6255	-27.8446	-6.91463	128.927	-22.9176	-35.6523	107.978	-38.3456	-34.6907	107.69	-37.8959	-4.58342	154.811	-2.95274	6.86736	152.317	-9.4447	41.2794	132.8	19.2385	32.0055	
70	0.583333	100.732	16.3911	37.1025	90.255	26.1292	6.30089	94.0442	14.4893	-25.2425	107.409	-11.576	-27.0741	102.867	21.9391	-38.8686	75.0156	8.13322	-40.7509	69.9216	-2.26378	-6.84902	114.703	5.53977	-44.4094	84.0203	-6.46625	-44.9782	84.1704	-21.3912	-8.01598	120.973	-9.11016	-38.6587	94.1803	-24.5684	-37.6878	95.1822	-24.4048	-2.83444	125.755	-24.7677	-34.9841	102.192	-37.7506	-26.4657	104.763	-35.0619	-0.011344	153.388	-5.06568	5.40362	152.842	-11.5331	36.3039	136.978	19.2745	29.1481	
71	0.591667	100.872	17.668	36.4539	87.6645	29.6075	7.01237	96.7753	11.3989	-21.04	108.395	-14.6651	-23.6919	102.844	24.0212	-36.2807	75.86	4.21581	-38.4911	68.9829	-2.85213	-9.15043	108.812	7.14169	-43.5369	82.492	-8.52016	-42.0874	84.2538	-18.0835	0.0271758	117.936	-11.5027	-38.319	95.7394	-29.1322	-32.8959	98.749	-24.1309	3.31352	126.188	-28.3846	-31.2776	101.187	-36.3403	-25.3268	105.916	-35.9918	2.7925	155.091	-5.4952	8.8241	152.075	-13.1493	41.969	133.954	16.548	32.5834	
72	0.6	100.171	16.3564	40.476	89.7935	28.5389	6.66309	97.1403	11.984	-20.1208	107.691	-13.2237	-19.5251	105.983	23.0473	-34.0163	74.8538	3.76935	-37.441	72.3809	-5.75149	-6.51551	110.392	5.42782	-41.55	83.7402	-13.4035	-39.082	83.4339	-18.7588	-1.14692	119.162	-11.131	-35.654	91.8227	-26.7204	-27.3749	101.514	-26.441	5.21591	125.982	-26.8521	-28.8641	100.315	-36.6238	-18.0701	109.912	-36.6389	11.0914	154.306	-4.78028	9.68764	153.994	-13.2052	37.472	133.334	20.0744	29.3332	
73	0.608333	100.889	18.1979	37.4914	86.5921	30.7193	7.52025	95.1286	12.2793	-18.231	106.702	-11.3526	-19.3632	103.635	23.8034	-34.425	73.2684	8.6368	-36.8675	69.2335	-4.06969	-7.57364	110.016	6.44504	-40.3665	84.6248	-11.0083	-39.0562	83.9676	-19.1434	0.1849	118.414	-10.7109	-33.749	93.2148	-31.2158	-25.2414	101.542	-25.9776	7.42189	125.088	-29.1417	-27.9151	101.702	-41.3614	-16.2996	110.634	-36.2853	14.4182	151.308	-2.9943	8.33951	151.827	-12.4504	41.3876	132.586	18.7204	32.9826	
74	0.616667	99.7816	17.0035	38.2437	89.6661	28.3212	7.43975	94.7987	12.7003	-17.6076	106.578	-11.9846	-16.6833	103.412	23.4834	-33.8877	73.3483	6.01346	-36.6807	72.2735	-6.89649	-7.8787	109.145	5.63075	-39.8496	83.8725	-14.3136	-36.4967	84.8468	-22.1456	-0.0659978	118.829	-12.1641	-33.6284	92.9122	-31.3888	-20.7883	100.27	-27.4176	7.80355	124.196	-29.4889	-27.5344	100.112	-40.1478	-12.5599	110.933	-33.2585	14.6584	153.332	-5.33352	6.92716	151.719	-13.0749	42.11	134.222	19.6914	29.1936	
75	0.625	99.7467	18.9913	37.6128	87.2725	31.0049	8.55582	92.5	15.0694	-18.7282	107.87	-13.8315	-20.6733	101.833	22.7934	-35.2409	74.6683	6.14964	-36.4785	70.1732	-3.63526	-5.61717	110.753	8.46708	-38.0265	80.9072	-11.8524	-35.0725	86.9053	-20.0944	4.79208	114.251	-14.8923	-34.8747	92.0034	-28.2252	-24.1827	101.625	-25.6226	9.17423	124.479	-29.3681	-26.895	101.405	-40.991	-14.9245	111.472	-35.6388	16.1578	153.704	-5.40423	7.28406	151.175	-13.4189	40.9821	134.466	21.8933	29.9614	
76	0.633333	99.0072	19.1738	39.0657	89.1884	31.6626	5.78079	93.634	14.6904	-18.8073	104.946	-12.2273	-22.8999	105.809	23.3174	-34.2771	73.5264	8.94959	-37.6836	73.3158	-6.59858	-4.3299	109.072	7.76022	-39.4315	81.9739	-13.3788	-35.7085	84.1604	-18.8345	2.27137	115.909	-11.2828	-32.3533	91.5776	-30.0169	-19.2665	101.945	-24.7009	10.4329	123.062	-27.1974	-25.9582	100.827	-38.8816	-13.6624	110.22	-31.6744	17.3004	151.014	-3.72361	11.8362	154.328	-12.2454	38.4422	133.794	18.8873	34.0866	
77	0.641667	97.964	21.1532	38.368	86.6485	30.494	9.6881	91.3323	16.5499	-18.4473	102.959	-11.0607	-22.2702	99.2565	25.2375	-37.1768	73.907	6.25468	-37.5628	72.5842	-8.08653	-7.4885	108.318	5.09589	-39.6556	80.8696	-10.8765	-35.1707	86.011	-21.7419	3.01094	113.323	-16.8993	-34.6186	91.2799	-27.3867	-20.3096	99.3284	-23.2137	11.046	123.55	-31.6852	-26.4917	101.683	-40.9612	-10.2351	114.174	-33.1961	18.1458	150.702	-2.78019	8.30925	152.415	-12.5713	37.5534	133.832	17.8156	30.2198	
78	0.65	97.0589	20.9905	39.9517	83.4492	32.3848	10.1545	91.4764	15.4307	-22.9769	104.134	-10.7351	-18.4271	103.211	22.9865	-34.1462	72.8473	6.73725	-38.7918	71.6986	-8.79864	-8.44772	111.034	5.96516	-38.0757	83.7946	-15.9177	-36.435	84.7202	-21.8635	2.42972	114.929	-16.8416	-32.9436	93.0889	-32.8358	-17.9571	102.908	-23.381	11.9626	120.587	-31.7918	-26.9051	102.301	-42.3803	-12.2315	109.389	-33.4905	16.7363	152.053	-1.10523	9.67246	151.534	-7.97046	42.0698	132.844	19.2818	29.3675	
79	0.658333	96.8238	21.3958	37.3976	85.5582	33.2135	7.78742	90.0097	16.5654	-16.3439	103.899	-8.67507	-17.966	98.4366	23.7926	-37.0587	73.9624	2.23261	-38.5632	69.539	-5.02889	-7.11358	109.097	7.02219	-38.6838	82.4562	-13.5283	-36.7494	85.7661	-19.7908	6.14029	116.432	-12.6284	-31.7075	91.1274	-30.2358	-18.8622	103.898	-22.22	12.2482	121.614	-32.0056	-28.2188	100.242	-37.1013	-13.0779	111.058	-35.0358	18.1507	151.468	-1.19942	10.8966	150.669	-6.81439	39.6165	130.465	19.9443	31.3246	
80	0.666667	98.553	21.6953	38.2333	89.118	32.3476	4.94229	93.9714	14.791	-20.2476	104.6	-12.6793	-22.0853	102.565	20.5995	-38.7892	73.148	5.11352	-38.5395	70.3152	-3.85336	-6.31959	108.926	3.42485	-39.8442	82.3978	-15.8413	-36.0772	83.1314	-18.6154	3.94471	116.391	-13.9615	-33.3031	91.1636	-28.7793	-21.8584	100.28	-22.9608	11.2095	120.984	-29.2149	-27.3818	99.3255	-40.3121	-10.8793	112.646	-34.1763	17.4361	150.714	-1.81225	10.4196	150.086	-10.0375	39.5519	131.318	19.1902	30.7847	
81	0.675	99.8824	21.9062	36.6644	90.8241	31.5341	5.43474	95.68	14.0708	-21.09	105.593	-11.7196	-16.1945	103.057	22.6175	-38.8427	73.9234	8.244	-38.354	72.2308	3.67594	-3.81745	107.889	0.373145	-42.1316	80.6451	-15.9598	-32.0258	84.12	-16.4763	5.71981	114.011	-16.9122	-34.8239	87.7836	-28.4448	-20.1494	101.648	-26.1299	11.3563	117.719	-31.8723	-27.4404	97.5571	-41.8183	-11.1744	108.015	-36.2103	16.77	150.627	-6.60416	11.4313	152.203	-15.6392	40.5756	135.835	15.0515	28.7545	
82	0.683333	100.42	25.136	34.5888	88.0226	29.478	3.87844	92.4218	7.91018	-20.3413	101.275	-17.033	-19.2232	107.633	16.4519	-39.7358	78.001	9.66527	-39.1374	80.5491	10.4825	-7.14585	108.615	1.67584	-39.2145	78.84	-8.80154	-33.8342	87.7139	-15.2346	9.1089	111.057	-17.3991	-34.494	86.1848	-27.253	-18.681	97.3766	-25.8404	9.59755	117.925	-32.7554	-26.3517	94.3274	-41.7651	-10.6987	104.689	-36.6529	16.041	151.834	-11.4707	6.25605	152.015	-16.1155	37.7619	137.08	14.6282	25.8956	
83	0.691667	103.673	21.705	32.8743	80.1569	25.4813	1.78795	75.0142	9.25922	-22.8698	85.0873	-17.9352	-28.519	111.53	17.3916	-38.7122	78.1235	12.7562	-32.4567	91.1926	15.3758	-1.05654	111.259	-1.62924	-39.8498	80.6493	-9.20475	-30.2629	92.4694	-10.0488	8.11349	112.953	-16.9511	-32.051	86.311	-27.1653	-21.2071	96.3739	-20.7924	12.6977	110.958	-34.4657	-25.6812	90.737	-36.8946	-7.57427	102.389	-35.0613	17.1673	152.889	-18.6139	7.66862	150.858	-24.8212	41.5045	142.972	11.4395	26.2103	
84	0.7	107.061	22.345	31.1341	84.877	24.353	2.29216	72.2752	11.0488	-25.5122	77.4156	-14.0558	-29.7287	109.193	20.9685	-39.2821	80.6399	11.1319	-28.6082	96.9211	11.5854	0.378236	111.112	-1.18115	-38.156	78.8062	-7.48588	-25.7036	97.5196	-10.7419	9.37153	107.359	-18.0295	-32.9862	82.9632	-28.43	-17.3634	94.1455	-18.9221	12.9336	112.469	-37.846	-24.3162	86.6505	-39.9959	-8.7631	99.4988	-33.4404	16.8372	150.575	-18.4542	5.44724	150.379	-26.4495	38.0167	144.611	6.43944	23.3717	
85	0.708333	111.54	23.0544	28.3976	87.0904	28.4247	2.55392	75.4844	12.9189	-22.5916	72.6553	-11.34	-31.3358	112.653	16.873	-37.635	81.146	13.254	-28.7122	98.8514	10.161	1.59638	107.164	-1.72299	-40.6851	79.3813	-6.79435	-29.4911	97.3827	-8.38187	10.0121	104.41	-24.6645	-31.8265	80.0235	-22.3627	-17.1518	94.4166	-22.083	15.5409	103.801	-37.8565	-23.0844	82.8601	-36.6754	-7.04792	100.133	-31.2669	19.2031	148.221	-24.7177	8.49009	146.496	-30.452	41.5728	146.459	1.87117	26.7018	
